<svg xmlns="http://www.w3.org/2000/svg" viewBox="0 0 1678.67 440.85"><defs><style>.cls-1{fill:#323235;}.cls-2{fill:none;stroke:#323235;stroke-miterlimit:10;}</style></defs><g id="Layer_2" data-name="Layer 2"><g id="Layer_1-2" data-name="Layer 1"><path class="cls-1" d="M1263.44,334V310.29a12.62,12.62,0,0,0-6.31-10.93l-20.49-11.83a12.61,12.61,0,0,0-12.63,0l-20.49,11.83a12.62,12.62,0,0,0-6.31,10.93V334a12.65,12.65,0,0,0,6.31,10.94L1224,356.71a12.61,12.61,0,0,0,12.63,0l20.49-11.82A12.65,12.65,0,0,0,1263.44,334Z"/><path class="cls-1" d="M1414.34,334V310.29a12.62,12.62,0,0,0-6.31-10.93l-20.49-11.83a12.61,12.61,0,0,0-12.63,0l-20.49,11.83a12.62,12.62,0,0,0-6.31,10.93V334a12.65,12.65,0,0,0,6.31,10.94l20.49,11.82a12.61,12.61,0,0,0,12.63,0L1408,344.89A12.65,12.65,0,0,0,1414.34,334Z"/><path class="cls-1" d="M1565.24,334V310.29a12.62,12.62,0,0,0-6.31-10.93l-20.49-11.83a12.61,12.61,0,0,0-12.63,0l-20.49,11.83a12.62,12.62,0,0,0-6.31,10.93V334a12.65,12.65,0,0,0,6.31,10.94l20.49,11.82a12.61,12.61,0,0,0,12.63,0l20.49-11.82A12.65,12.65,0,0,0,1565.24,334Z"/><path class="cls-1" d="M1489.79,334V310.29a12.62,12.62,0,0,0-6.31-10.93L1463,287.53a12.61,12.61,0,0,0-12.63,0l-20.49,11.83a12.62,12.62,0,0,0-6.31,10.93V334a12.65,12.65,0,0,0,6.31,10.94l20.49,11.82a12.61,12.61,0,0,0,12.63,0l20.49-11.82A12.65,12.65,0,0,0,1489.79,334Z"/><path class="cls-1" d="M1640.69,334V310.29a12.62,12.62,0,0,0-6.31-10.93l-20.49-11.83a12.61,12.61,0,0,0-12.63,0l-20.48,11.83a12.61,12.61,0,0,0-6.32,10.93V334a12.64,12.64,0,0,0,6.32,10.94l20.48,11.82a12.61,12.61,0,0,0,12.63,0l20.49-11.82A12.65,12.65,0,0,0,1640.69,334Z"/><path class="cls-1" d="M1188,203.29V179.63a12.62,12.62,0,0,0-6.31-10.93l-20.49-11.83a12.61,12.61,0,0,0-12.63,0l-20.49,11.83a12.62,12.62,0,0,0-6.31,10.93v23.66a12.65,12.65,0,0,0,6.31,10.94l20.49,11.82a12.61,12.61,0,0,0,12.63,0l20.49-11.82A12.65,12.65,0,0,0,1188,203.29Z"/><path class="cls-1" d="M1338.89,203.29V179.63a12.62,12.62,0,0,0-6.31-10.93l-20.49-11.83a12.61,12.61,0,0,0-12.63,0L1279,168.7a12.62,12.62,0,0,0-6.31,10.93v23.66a12.65,12.65,0,0,0,6.31,10.94l20.49,11.82a12.61,12.61,0,0,0,12.63,0l20.49-11.82A12.65,12.65,0,0,0,1338.89,203.29Z"/><path class="cls-2" d="M1230.32,244.2a29.08,29.08,0,0,1-14.53-3.9l-20.49-11.83a29.15,29.15,0,0,1-14.54-25.18V179.63a29.16,29.16,0,0,1,14.54-25.18l20.49-11.83a29.12,29.12,0,0,1,29.08,0l20.48,11.83a29.16,29.16,0,0,1,14.54,25.18v23.66a29.15,29.15,0,0,1-14.54,25.18l-20.49,11.83A29.09,29.09,0,0,1,1230.32,244.2Z"/><path class="cls-1" d="M1263.44,203.29V179.63a12.62,12.62,0,0,0-6.31-10.93l-20.49-11.83a12.61,12.61,0,0,0-12.63,0l-20.49,11.83a12.62,12.62,0,0,0-6.31,10.93v23.66a12.65,12.65,0,0,0,6.31,10.94L1224,226.05a12.61,12.61,0,0,0,12.63,0l20.49-11.82A12.65,12.65,0,0,0,1263.44,203.29Z"/><path class="cls-1" d="M1565.24,203.29V179.63a12.62,12.62,0,0,0-6.31-10.93l-20.49-11.83a12.61,12.61,0,0,0-12.63,0l-20.49,11.83a12.62,12.62,0,0,0-6.31,10.93v23.66a12.65,12.65,0,0,0,6.31,10.94l20.49,11.82a12.61,12.61,0,0,0,12.63,0l20.49-11.82A12.65,12.65,0,0,0,1565.24,203.29Z"/><path class="cls-1" d="M1489.79,203.29V179.63a12.62,12.62,0,0,0-6.31-10.93L1463,156.87a12.61,12.61,0,0,0-12.63,0l-20.49,11.83a12.62,12.62,0,0,0-6.31,10.93v23.66a12.65,12.65,0,0,0,6.31,10.94l20.49,11.82a12.61,12.61,0,0,0,12.63,0l20.49-11.82A12.65,12.65,0,0,0,1489.79,203.29Z"/><path class="cls-2" d="M1607.58,244.2a29.09,29.09,0,0,1-14.54-3.9l-20.49-11.83A29.15,29.15,0,0,1,1558,203.29V179.63a29.16,29.16,0,0,1,14.54-25.18L1593,142.62a29.12,29.12,0,0,1,29.08,0l20.48,11.83a29.16,29.16,0,0,1,14.54,25.18v23.66a29.16,29.16,0,0,1-14.53,25.18l-20.49,11.83A29.15,29.15,0,0,1,1607.58,244.2Z"/><path class="cls-1" d="M1640.69,203.29V179.63a12.62,12.62,0,0,0-6.31-10.93l-20.49-11.83a12.61,12.61,0,0,0-12.63,0l-20.48,11.83a12.61,12.61,0,0,0-6.32,10.93v23.66a12.64,12.64,0,0,0,6.32,10.94l20.48,11.82a12.61,12.61,0,0,0,12.63,0l20.49-11.82A12.65,12.65,0,0,0,1640.69,203.29Z"/><path class="cls-1" d="M1150.52,399.44V375.78a12.62,12.62,0,0,0-6.31-10.93L1123.72,353a12.61,12.61,0,0,0-12.63,0l-20.49,11.83a12.62,12.62,0,0,0-6.31,10.93v23.66a12.65,12.65,0,0,0,6.31,10.94l20.49,11.82a12.61,12.61,0,0,0,12.63,0l20.49-11.82A12.65,12.65,0,0,0,1150.52,399.44Z"/><path class="cls-1" d="M1226,399.44V375.78a12.62,12.62,0,0,0-6.31-10.93L1199.17,353a12.61,12.61,0,0,0-12.63,0l-20.49,11.83a12.62,12.62,0,0,0-6.31,10.93v23.66a12.65,12.65,0,0,0,6.31,10.94l20.49,11.82a12.61,12.61,0,0,0,12.63,0l20.49-11.82A12.65,12.65,0,0,0,1226,399.44Z"/><path class="cls-1" d="M1376.87,399.44V375.78a12.62,12.62,0,0,0-6.31-10.93L1350.07,353a12.61,12.61,0,0,0-12.63,0L1317,364.85a12.61,12.61,0,0,0-6.32,10.93v23.66a12.64,12.64,0,0,0,6.32,10.94l20.48,11.82a12.61,12.61,0,0,0,12.63,0l20.49-11.82A12.65,12.65,0,0,0,1376.87,399.44Z"/><path class="cls-2" d="M1494.66,440.35a29.09,29.09,0,0,1-14.54-3.9l-20.49-11.83a29.16,29.16,0,0,1-14.54-25.18V375.78a29.16,29.16,0,0,1,14.54-25.18l20.49-11.83a29.05,29.05,0,0,1,29.08,0l20.48,11.83a29.16,29.16,0,0,1,14.54,25.18v23.66a29.17,29.17,0,0,1-14.53,25.18l-20.49,11.83A29.15,29.15,0,0,1,1494.66,440.35Z"/><path class="cls-1" d="M1527.77,399.44V375.78a12.6,12.6,0,0,0-6.31-10.93L1501,353a12.61,12.61,0,0,0-12.63,0l-20.48,11.83a12.61,12.61,0,0,0-6.32,10.93v23.66a12.64,12.64,0,0,0,6.32,10.94l20.48,11.82a12.61,12.61,0,0,0,12.63,0l20.49-11.82A12.63,12.63,0,0,0,1527.77,399.44Z"/><path class="cls-1" d="M1678.67,399.44V375.78a12.6,12.6,0,0,0-6.31-10.93L1651.87,353a12.59,12.59,0,0,0-12.62,0l-20.49,11.83a12.61,12.61,0,0,0-6.32,10.93v23.66a12.64,12.64,0,0,0,6.32,10.94l20.49,11.82a12.59,12.59,0,0,0,12.62,0l20.49-11.82A12.63,12.63,0,0,0,1678.67,399.44Z"/><path class="cls-1" d="M1150.52,268.78V245.12a12.62,12.62,0,0,0-6.31-10.93l-20.49-11.83a12.61,12.61,0,0,0-12.63,0l-20.49,11.83a12.62,12.62,0,0,0-6.31,10.93v23.66a12.65,12.65,0,0,0,6.31,10.94l20.49,11.82a12.61,12.61,0,0,0,12.63,0l20.49-11.82A12.65,12.65,0,0,0,1150.52,268.78Z"/><path class="cls-1" d="M1376.87,268.78V245.12a12.62,12.62,0,0,0-6.31-10.93l-20.49-11.83a12.61,12.61,0,0,0-12.63,0L1317,234.19a12.61,12.61,0,0,0-6.32,10.93v23.66a12.64,12.64,0,0,0,6.32,10.94l20.48,11.82a12.61,12.61,0,0,0,12.63,0l20.49-11.82A12.65,12.65,0,0,0,1376.87,268.78Z"/><path class="cls-1" d="M1678.67,268.78V245.12a12.6,12.6,0,0,0-6.31-10.93l-20.49-11.83a12.59,12.59,0,0,0-12.62,0l-20.49,11.83a12.61,12.61,0,0,0-6.32,10.93v23.66a12.64,12.64,0,0,0,6.32,10.94l20.49,11.82a12.59,12.59,0,0,0,12.62,0l20.49-11.82A12.63,12.63,0,0,0,1678.67,268.78Z"/><path class="cls-1" d="M1188,72.63V49A12.62,12.62,0,0,0,1181.68,38l-20.49-11.83a12.61,12.61,0,0,0-12.63,0L1128.07,38A12.62,12.62,0,0,0,1121.76,49V72.63a12.65,12.65,0,0,0,6.31,10.94l20.49,11.83a12.66,12.66,0,0,0,12.63,0l20.49-11.83A12.65,12.65,0,0,0,1188,72.63Z"/><path class="cls-1" d="M1414.34,72.63V49A12.62,12.62,0,0,0,1408,38l-20.49-11.83a12.61,12.61,0,0,0-12.63,0L1354.42,38A12.62,12.62,0,0,0,1348.11,49V72.63a12.65,12.65,0,0,0,6.31,10.94l20.49,11.83a12.66,12.66,0,0,0,12.63,0L1408,83.57A12.65,12.65,0,0,0,1414.34,72.63Z"/><path class="cls-1" d="M1565.24,72.63V49A12.62,12.62,0,0,0,1558.93,38l-20.49-11.83a12.61,12.61,0,0,0-12.63,0L1505.32,38A12.62,12.62,0,0,0,1499,49V72.63a12.65,12.65,0,0,0,6.31,10.94l20.49,11.83a12.66,12.66,0,0,0,12.63,0l20.49-11.83A12.65,12.65,0,0,0,1565.24,72.63Z"/><path class="cls-1" d="M1489.79,72.63V49A12.62,12.62,0,0,0,1483.48,38L1463,26.21a12.61,12.61,0,0,0-12.63,0L1429.87,38A12.62,12.62,0,0,0,1423.56,49V72.63a12.65,12.65,0,0,0,6.31,10.94l20.49,11.83a12.66,12.66,0,0,0,12.63,0l20.49-11.83A12.65,12.65,0,0,0,1489.79,72.63Z"/><path class="cls-1" d="M1226,138.12V114.46a12.62,12.62,0,0,0-6.31-10.93L1199.17,91.7a12.61,12.61,0,0,0-12.63,0l-20.49,11.83a12.62,12.62,0,0,0-6.31,10.93v23.66a12.65,12.65,0,0,0,6.31,10.94l20.49,11.83a12.66,12.66,0,0,0,12.63,0l20.49-11.83A12.65,12.65,0,0,0,1226,138.12Z"/><path class="cls-1" d="M1376.87,138.12V114.46a12.62,12.62,0,0,0-6.31-10.93L1350.07,91.7a12.61,12.61,0,0,0-12.63,0L1317,103.53a12.61,12.61,0,0,0-6.32,10.93v23.66a12.64,12.64,0,0,0,6.32,10.94l20.48,11.83a12.66,12.66,0,0,0,12.63,0l20.49-11.83A12.65,12.65,0,0,0,1376.87,138.12Z"/><path class="cls-1" d="M1452.32,138.12V114.46a12.6,12.6,0,0,0-6.31-10.93L1425.52,91.7a12.61,12.61,0,0,0-12.63,0l-20.48,11.83a12.61,12.61,0,0,0-6.32,10.93v23.66a12.64,12.64,0,0,0,6.32,10.94l20.48,11.83a12.66,12.66,0,0,0,12.63,0L1446,149.06A12.63,12.63,0,0,0,1452.32,138.12Z"/><path class="cls-1" d="M103.7,178.77V155.11a12.62,12.62,0,0,0-6.32-10.93L76.9,132.35a12.66,12.66,0,0,0-12.63,0L43.78,144.18a12.64,12.64,0,0,0-6.31,10.93v23.66a12.65,12.65,0,0,0,6.31,10.94l20.49,11.83a12.66,12.66,0,0,0,12.63,0l20.48-11.83A12.64,12.64,0,0,0,103.7,178.77Z"/><path class="cls-1" d="M254.6,178.77V155.11a12.64,12.64,0,0,0-6.31-10.93L227.8,132.35a12.66,12.66,0,0,0-12.63,0l-20.49,11.83a12.64,12.64,0,0,0-6.31,10.93v23.66a12.65,12.65,0,0,0,6.31,10.94l20.49,11.83a12.66,12.66,0,0,0,12.63,0l20.49-11.83A12.65,12.65,0,0,0,254.6,178.77Z"/><path class="cls-1" d="M179.15,178.77V155.11a12.62,12.62,0,0,0-6.32-10.93l-20.48-11.83a12.66,12.66,0,0,0-12.63,0l-20.49,11.83a12.64,12.64,0,0,0-6.31,10.93v23.66a12.65,12.65,0,0,0,6.31,10.94l20.49,11.83a12.66,12.66,0,0,0,12.63,0l20.48-11.83A12.64,12.64,0,0,0,179.15,178.77Z"/><path class="cls-1" d="M481,178.77V155.11a12.64,12.64,0,0,0-6.31-10.93l-20.49-11.83a12.66,12.66,0,0,0-12.63,0L421,144.18a12.64,12.64,0,0,0-6.31,10.93v23.66A12.65,12.65,0,0,0,421,189.71l20.49,11.83a12.66,12.66,0,0,0,12.63,0l20.49-11.83A12.65,12.65,0,0,0,481,178.77Z"/><path class="cls-1" d="M405.5,178.77V155.11a12.64,12.64,0,0,0-6.31-10.93L378.7,132.35a12.66,12.66,0,0,0-12.63,0l-20.49,11.83a12.64,12.64,0,0,0-6.31,10.93v23.66a12.65,12.65,0,0,0,6.31,10.94l20.49,11.83a12.66,12.66,0,0,0,12.63,0l20.49-11.83A12.65,12.65,0,0,0,405.5,178.77Z"/><path class="cls-1" d="M66.23,244.26V220.6a12.64,12.64,0,0,0-6.31-10.93L39.43,197.84a12.66,12.66,0,0,0-12.63,0L6.31,209.67A12.64,12.64,0,0,0,0,220.6v23.66A12.65,12.65,0,0,0,6.31,255.2L26.8,267a12.66,12.66,0,0,0,12.63,0L59.92,255.2A12.65,12.65,0,0,0,66.23,244.26Z"/><path class="cls-2" d="M259.47,285.17a29.09,29.09,0,0,1-14.54-3.9l-20.49-11.83a29.14,29.14,0,0,1-14.54-25.18V220.6a29.16,29.16,0,0,1,14.54-25.18l20.49-11.83a29.1,29.1,0,0,1,29.07,0l20.49,11.83A29.16,29.16,0,0,1,309,220.6v23.66a29.15,29.15,0,0,1-14.54,25.18L274,281.27A29.15,29.15,0,0,1,259.47,285.17Z"/><path class="cls-1" d="M292.58,244.26V220.6a12.64,12.64,0,0,0-6.31-10.93l-20.49-11.83a12.66,12.66,0,0,0-12.63,0l-20.49,11.83a12.64,12.64,0,0,0-6.31,10.93v23.66a12.65,12.65,0,0,0,6.31,10.94L253.15,267a12.66,12.66,0,0,0,12.63,0l20.49-11.83A12.65,12.65,0,0,0,292.58,244.26Z"/><path class="cls-1" d="M103.7,48.11V24.46a12.63,12.63,0,0,0-6.32-10.94L76.9,1.69a12.66,12.66,0,0,0-12.63,0L43.78,13.52a12.64,12.64,0,0,0-6.31,10.94V48.11a12.65,12.65,0,0,0,6.31,10.94L64.27,70.88a12.66,12.66,0,0,0,12.63,0L97.38,59.05A12.64,12.64,0,0,0,103.7,48.11Z"/><path class="cls-1" d="M330.05,48.11V24.46a12.64,12.64,0,0,0-6.31-10.94L303.25,1.69a12.66,12.66,0,0,0-12.63,0L270.13,13.52a12.64,12.64,0,0,0-6.31,10.94V48.11a12.65,12.65,0,0,0,6.31,10.94l20.49,11.83a12.66,12.66,0,0,0,12.63,0l20.49-11.83A12.65,12.65,0,0,0,330.05,48.11Z"/><path class="cls-1" d="M481,48.11V24.46a12.64,12.64,0,0,0-6.31-10.94L454.15,1.69a12.66,12.66,0,0,0-12.63,0L421,13.52a12.64,12.64,0,0,0-6.31,10.94V48.11A12.65,12.65,0,0,0,421,59.05l20.49,11.83a12.66,12.66,0,0,0,12.63,0l20.49-11.83A12.65,12.65,0,0,0,481,48.11Z"/><path class="cls-1" d="M405.5,48.11V24.46a12.64,12.64,0,0,0-6.31-10.94L378.7,1.69a12.66,12.66,0,0,0-12.63,0L345.58,13.52a12.64,12.64,0,0,0-6.31,10.94V48.11a12.65,12.65,0,0,0,6.31,10.94l20.49,11.83a12.66,12.66,0,0,0,12.63,0l20.49-11.83A12.65,12.65,0,0,0,405.5,48.11Z"/><path class="cls-2" d="M108.56,154.51A29.08,29.08,0,0,1,94,150.61L73.54,138.79A29.17,29.17,0,0,1,59,113.6V90A29.17,29.17,0,0,1,73.54,64.76L94,52.93a29.12,29.12,0,0,1,29.08,0l20.48,11.83A29.17,29.17,0,0,1,158.13,90V113.6a29.17,29.17,0,0,1-14.54,25.19L123.1,150.61A29.09,29.09,0,0,1,108.56,154.51Z"/><path class="cls-1" d="M141.68,113.6V90A12.64,12.64,0,0,0,135.37,79L114.88,67.18a12.66,12.66,0,0,0-12.63,0L81.76,79A12.64,12.64,0,0,0,75.45,90V113.6a12.65,12.65,0,0,0,6.31,10.94l20.49,11.83a12.66,12.66,0,0,0,12.63,0l20.49-11.83A12.65,12.65,0,0,0,141.68,113.6Z"/><path class="cls-1" d="M292.58,113.6V90A12.64,12.64,0,0,0,286.27,79L265.78,67.18a12.66,12.66,0,0,0-12.63,0L232.66,79A12.64,12.64,0,0,0,226.35,90V113.6a12.65,12.65,0,0,0,6.31,10.94l20.49,11.83a12.66,12.66,0,0,0,12.63,0l20.49-11.83A12.65,12.65,0,0,0,292.58,113.6Z"/><path class="cls-1" d="M368,113.6V90A12.64,12.64,0,0,0,361.72,79L341.23,67.18a12.66,12.66,0,0,0-12.63,0L308.12,79A12.63,12.63,0,0,0,301.8,90V113.6a12.64,12.64,0,0,0,6.32,10.94l20.48,11.83a12.66,12.66,0,0,0,12.63,0l20.49-11.83A12.65,12.65,0,0,0,368,113.6Z"/></g></g></svg>