<?xml version="1.0" encoding="utf-8"?>
<!-- Generator: Adobe Illustrator 25.0.1, SVG Export Plug-In . SVG Version: 6.00 Build 0)  -->
<svg version="1.1" id="Layer_1" xmlns="http://www.w3.org/2000/svg" xmlns:xlink="http://www.w3.org/1999/xlink" x="0px" y="0px"
	 viewBox="0 0 932.4 727.2" style="enable-background:new 0 0 932.4 727.2;" xml:space="preserve">
<style type="text/css">
	.st0{fill:#323235;}
	.st1{fill:none;stroke:#323235;stroke-miterlimit:10;}
</style>
<g id="Layer_2_1_">
	<g id="Layer_1-2">
		<path class="st0" d="M301.8,90.4v23.7c0,4.5,2.4,8.7,6.3,10.9l20.5,11.8c3.9,2.3,8.7,2.3,12.6,0l20.5-11.8
			c3.9-2.3,6.3-6.4,6.3-10.9V90.4c0-4.5-2.4-8.7-6.3-10.9l-20.5-11.8c-3.9-2.3-8.7-2.3-12.6,0l-20.5,11.8
			C304.2,81.8,301.8,85.9,301.8,90.4z"/>
		<path class="st0" d="M301.8,532v23.7c0,4.5,2.4,8.7,6.3,10.9l20.5,11.8c3.9,2.2,8.7,2.2,12.6,0l20.5-11.8
			c3.9-2.3,6.3-6.4,6.3-10.9V532c0-4.5-2.4-8.7-6.3-10.9l-20.5-11.8c-3.9-2.2-8.7-2.2-12.6,0L308.1,521
			C304.2,523.3,301.8,527.4,301.8,532z"/>
		<path class="st0" d="M150.9,532v23.7c0,4.5,2.4,8.7,6.3,10.9l20.5,11.8c3.9,2.2,8.7,2.2,12.6,0l20.5-11.8
			c3.9-2.3,6.3-6.4,6.3-10.9V532c0-4.5-2.4-8.7-6.3-10.9l-20.5-11.8c-3.9-2.2-8.7-2.2-12.6,0L157.2,521
			C153.3,523.3,150.9,527.4,150.9,532z"/>
		<path class="st0" d="M226.3,532v23.7c0,4.5,2.4,8.7,6.3,10.9l20.5,11.8c3.9,2.2,8.7,2.2,12.6,0l20.5-11.8
			c3.9-2.3,6.3-6.4,6.3-10.9V532c0-4.5-2.4-8.7-6.3-10.9l-20.5-11.8c-3.9-2.2-8.7-2.2-12.6,0L232.7,521
			C228.8,523.3,226.4,527.4,226.3,532z"/>
		<path class="st0" d="M75.4,532v23.7c0,4.5,2.4,8.7,6.3,10.9l20.5,11.8c3.9,2.2,8.7,2.2,12.6,0l20.5-11.8c3.9-2.3,6.3-6.4,6.3-10.9
			V532c0-4.5-2.4-8.7-6.3-10.9l-20.5-11.8c-3.9-2.2-8.7-2.2-12.6,0L81.8,521C77.8,523.3,75.4,527.4,75.4,532z"/>
		<path class="st0" d="M377.2,221.1v23.7c0,4.5,2.4,8.7,6.3,10.9l20.5,11.8c3.9,2.3,8.7,2.3,12.6,0l20.5-11.8
			c3.9-2.3,6.3-6.4,6.3-10.9v-23.7c0-4.5-2.4-8.7-6.3-10.9l-20.5-11.8c-3.9-2.2-8.7-2.2-12.6,0l-20.5,11.8
			C379.7,212.4,377.2,216.6,377.2,221.1z"/>
		<path class="st0" d="M226.3,221.1v23.7c0,4.5,2.4,8.7,6.3,10.9l20.5,11.8c3.9,2.3,8.7,2.3,12.6,0l20.5-11.8
			c3.9-2.3,6.3-6.4,6.3-10.9v-23.7c0-4.5-2.4-8.7-6.3-10.9l-20.5-11.8c-3.9-2.2-8.7-2.2-12.6,0l-20.5,11.8
			C228.8,212.4,226.3,216.6,226.3,221.1z"/>
		<path class="st1" d="M334.9,180.2c5.1,0,10.1,1.3,14.5,3.9l20.5,11.8c9,5.2,14.5,14.8,14.5,25.2v23.7c0,10.4-5.6,20-14.5,25.2
			l-20.5,11.8c-9,5.2-20.1,5.2-29.1,0l-20.5-11.8c-9-5.2-14.5-14.8-14.5-25.2v-23.7c0-10.4,5.6-20,14.5-25.2l20.6-11.8
			C324.8,181.5,329.8,180.2,334.9,180.2z"/>
		<path class="st0" d="M301.8,221.1v23.7c0,4.5,2.4,8.7,6.3,10.9l20.5,11.8c3.9,2.3,8.7,2.3,12.6,0l20.5-11.8
			c3.9-2.3,6.3-6.4,6.3-10.9v-23.7c0-4.5-2.4-8.7-6.3-10.9l-20.5-11.8c-3.9-2.2-8.7-2.2-12.6,0l-20.5,11.8
			C304.2,212.4,301.8,216.6,301.8,221.1z"/>
		<path class="st0" d="M150.9,662.6v23.6c0,4.5,2.4,8.7,6.3,10.9l20.5,11.8c3.9,2.2,8.7,2.2,12.6,0l20.5-11.8
			c3.9-2.3,6.3-6.4,6.3-10.9v-23.6c0-4.5-2.4-8.7-6.3-10.9l-20.5-11.8c-3.9-2.2-8.7-2.2-12.6,0l-20.5,11.8
			C153.3,653.9,150.9,658.1,150.9,662.6z"/>
		<path class="st0" d="M226.3,662.6v23.6c0,4.5,2.4,8.7,6.3,10.9l20.5,11.8c3.9,2.2,8.7,2.2,12.6,0l20.5-11.8
			c3.9-2.3,6.3-6.4,6.3-10.9v-23.6c0-4.5-2.4-8.7-6.3-10.9l-20.5-11.8c-3.9-2.2-8.7-2.2-12.6,0l-20.5,11.8
			C228.8,653.9,226.4,658.1,226.3,662.6z"/>
		<path class="st1" d="M108.6,621.7c5.1,0,10.1,1.3,14.5,3.9l20.5,11.9c9,5.2,14.5,14.8,14.5,25.2v23.6c0,10.4-5.6,20-14.5,25.2
			l-20.5,11.8c-9,5.2-20.1,5.2-29.1,0l-20.5-11.8c-9-5.2-14.5-14.8-14.5-25.2v-23.6c0-10.4,5.5-20,14.5-25.2L94,625.6
			C98.4,623,103.5,621.7,108.6,621.7z"/>
		<path class="st0" d="M75.4,662.6v23.6c0,4.5,2.4,8.7,6.3,10.9l20.5,11.8c3.9,2.2,8.7,2.2,12.6,0l20.5-11.8
			c3.9-2.3,6.3-6.4,6.3-10.9v-23.6c0-4.5-2.4-8.7-6.3-10.9l-20.5-11.8c-3.9-2.2-8.7-2.2-12.6,0l-20.5,11.8
			C77.8,653.9,75.4,658.1,75.4,662.6z"/>
		<path class="st0" d="M414.7,25v23.7c0,4.5,2.4,8.7,6.3,10.9l20.5,11.8c3.9,2.3,8.7,2.3,12.6,0l20.5-11.8c3.9-2.3,6.3-6.4,6.3-10.9
			V25c0-4.5-2.4-8.7-6.3-10.9L454.1,2.2c-3.9-2.3-8.7-2.3-12.6,0L421,14C417.1,16.3,414.7,20.4,414.7,25z"/>
		<path class="st0" d="M339.3,25v23.7c0,4.5,2.4,8.7,6.3,10.9l20.5,11.8c3.9,2.3,8.7,2.3,12.6,0l20.5-11.8c3.9-2.3,6.3-6.4,6.3-10.9
			V25c0-4.5-2.4-8.7-6.3-10.9L378.7,2.2c-3.9-2.3-8.7-2.3-12.6,0L345.6,14C341.7,16.3,339.3,20.4,339.3,25z"/>
		<path class="st0" d="M339.3,466.5v23.6c0,4.5,2.4,8.7,6.3,10.9l20.5,11.8c3.9,2.2,8.7,2.2,12.6,0l20.5-11.8
			c3.9-2.3,6.3-6.4,6.3-10.9v-23.6c0-4.5-2.4-8.7-6.3-10.9l-20.5-11.9c-3.9-2.2-8.7-2.2-12.6,0l-20.5,11.8
			C341.7,457.8,339.3,461.9,339.3,466.5z"/>
		<path class="st1" d="M221.5,425.6c5.1,0,10.1,1.3,14.5,3.9l20.5,11.8c9,5.2,14.5,14.8,14.5,25.2v23.6c0,10.4-5.6,20-14.5,25.2
			L236,527.1c-9,5.2-20.1,5.2-29.1,0l-20.5-11.8c-9-5.2-14.5-14.8-14.5-25.2v-23.6c0-10.4,5.6-20,14.5-25.2l20.5-11.8
			C211.3,426.9,216.4,425.6,221.5,425.6z"/>
		<path class="st0" d="M188.4,466.5v23.6c0,4.5,2.4,8.7,6.3,10.9l20.5,11.8c3.9,2.2,8.7,2.2,12.6,0l20.5-11.8
			c3.9-2.3,6.3-6.4,6.3-10.9v-23.6c0-4.5-2.4-8.7-6.3-10.9l-20.5-11.9c-3.9-2.2-8.7-2.2-12.6,0l-20.5,11.8
			C190.8,457.8,188.4,461.9,188.4,466.5z"/>
		<path class="st0" d="M37.4,466.5v23.6c0,4.5,2.4,8.7,6.3,10.9l20.5,11.8c3.9,2.3,8.7,2.3,12.6,0l20.6-11.8
			c3.9-2.3,6.3-6.4,6.3-10.9v-23.6c0-4.5-2.4-8.7-6.3-10.9l-20.5-11.9c-3.9-2.3-8.7-2.3-12.6,0l-20.5,11.8
			C39.8,457.8,37.4,461.9,37.4,466.5z"/>
		<path class="st0" d="M414.7,155.6v23.7c0,4.5,2.4,8.7,6.3,10.9l20.5,11.8c3.9,2.3,8.7,2.3,12.6,0l20.5-11.8
			c3.9-2.3,6.3-6.4,6.3-10.9v-23.7c0-4.5-2.4-8.7-6.3-10.9l-20.5-11.8c-3.9-2.2-8.7-2.2-12.6,0L421,144.7
			C417.1,146.9,414.7,151.1,414.7,155.6z"/>
		<path class="st0" d="M339.3,597.1v23.7c0,4.5,2.4,8.6,6.3,10.9l20.5,11.9c3.9,2.2,8.7,2.2,12.6,0l20.5-11.9
			c3.9-2.3,6.3-6.4,6.3-10.9v-23.7c0-4.5-2.4-8.7-6.3-10.9l-20.5-11.8c-3.9-2.2-8.7-2.2-12.6,0l-20.5,11.8
			C341.7,588.4,339.3,592.6,339.3,597.1z"/>
		<path class="st0" d="M37.4,597.1v23.7c0,4.5,2.4,8.7,6.4,10.9l20.5,11.9c3.9,2.3,8.7,2.3,12.6,0l20.5-11.9
			c3.9-2.3,6.3-6.4,6.3-10.9v-23.7c0-4.5-2.4-8.7-6.3-10.9l-20.5-11.8c-3.9-2.3-8.7-2.3-12.6,0l-20.5,11.8
			C39.9,588.4,37.4,592.6,37.4,597.1z"/>
		<path class="st0" d="M377.2,351.8v23.7c0,4.5,2.4,8.7,6.3,10.9l20.5,11.8c3.9,2.2,8.7,2.2,12.6,0l20.5-11.8
			c3.9-2.3,6.3-6.4,6.3-10.9v-23.7c0-4.5-2.4-8.7-6.3-10.9L416.7,329c-3.9-2.2-8.7-2.2-12.6,0l-20.5,11.8
			C379.7,343.1,377.3,347.3,377.2,351.8z"/>
		<path class="st0" d="M150.9,351.8v23.7c0,4.5,2.4,8.7,6.3,10.9l20.5,11.8c3.9,2.2,8.7,2.2,12.6,0l20.5-11.8
			c3.9-2.3,6.3-6.4,6.3-10.9v-23.7c0-4.5-2.4-8.7-6.3-10.9L190.3,329c-3.9-2.2-8.7-2.2-12.6,0l-20.5,11.8
			C153.3,343.1,150.9,347.3,150.9,351.8z"/>
		<path class="st0" d="M0,351.8l0,23.7c0,4.5,2.4,8.7,6.3,10.9l20.5,11.8c3.9,2.2,8.7,2.2,12.6,0l20.5-11.8
			c3.9-2.3,6.3-6.4,6.3-10.9v-23.7c0-4.5-2.4-8.7-6.3-10.9L39.4,329c-3.9-2.2-8.7-2.2-12.6,0L6.3,340.8C2.4,343.1,0,347.3,0,351.8z"
			/>
		<path class="st0" d="M75.4,351.8v23.7c0,4.5,2.4,8.7,6.3,10.9l20.5,11.8c3.9,2.2,8.7,2.2,12.6,0l20.5-11.8
			c3.9-2.3,6.3-6.4,6.3-10.9v-23.7c0-4.5-2.4-8.7-6.3-10.9L114.8,329c-3.9-2.2-8.7-2.2-12.6,0l-20.5,11.8
			C77.8,343.1,75.4,347.3,75.4,351.8z"/>
		<path class="st0" d="M339.3,286.3v23.7c0,4.5,2.4,8.7,6.3,10.9l20.5,11.8c3.9,2.2,8.7,2.2,12.6,0l20.5-11.8
			c3.9-2.3,6.3-6.4,6.3-10.9v-23.6c0-4.5-2.4-8.7-6.3-10.9l-20.5-11.8c-3.9-2.2-8.7-2.2-12.6,0l-20.5,11.8
			C341.7,277.6,339.3,281.8,339.3,286.3z"/>
		<path class="st0" d="M188.4,286.3v23.7c0,4.5,2.4,8.7,6.3,10.9l20.5,11.8c3.9,2.2,8.7,2.2,12.6,0l20.5-11.8
			c3.9-2.3,6.3-6.4,6.3-10.9v-23.6c0-4.5-2.4-8.7-6.3-10.9l-20.5-11.8c-3.9-2.2-8.7-2.2-12.6,0l-20.5,11.8
			C190.8,277.6,188.4,281.8,188.4,286.3z"/>
		<path class="st0" d="M112.9,286.3v23.7c0,4.5,2.4,8.7,6.3,10.9l20.5,11.8c3.9,2.2,8.7,2.2,12.6,0l20.5-11.8
			c3.9-2.3,6.3-6.4,6.3-10.9v-23.6c0-4.5-2.4-8.7-6.3-10.9l-20.5-11.8c-3.9-2.2-8.7-2.2-12.6,0l-20.5,11.8
			C115.3,277.6,112.9,281.8,112.9,286.3z"/>
		<path class="st0" d="M555.2,439.7v-23.7c0-4.5-2.4-8.7-6.3-10.9l-20.5-11.8c-3.9-2.3-8.7-2.3-12.6,0l-20.5,11.8
			c-3.9,2.3-6.3,6.4-6.3,10.9v23.7c0,4.5,2.4,8.7,6.3,10.9l20.5,11.8c3.9,2.3,8.7,2.3,12.6,0l20.5-11.8
			C552.8,448.4,555.2,444.2,555.2,439.7z"/>
		<path class="st0" d="M706.1,439.7v-23.7c0-4.5-2.4-8.7-6.3-10.9l-20.5-11.8c-3.9-2.3-8.7-2.3-12.6,0l-20.5,11.8
			c-3.9,2.3-6.3,6.4-6.3,10.9v23.7c0,4.5,2.4,8.7,6.3,10.9l20.5,11.8c3.9,2.3,8.7,2.3,12.6,0l20.5-11.8
			C703.7,448.4,706.1,444.2,706.1,439.7z"/>
		<path class="st0" d="M630.6,439.7v-23.7c0-4.5-2.4-8.7-6.3-10.9l-20.5-11.8c-3.9-2.3-8.7-2.3-12.6,0l-20.5,11.8
			c-3.9,2.3-6.3,6.4-6.3,10.9v23.7c0,4.5,2.4,8.7,6.3,10.9l20.5,11.8c3.9,2.3,8.7,2.3,12.6,0l20.5-11.8
			C628.2,448.4,630.6,444.2,630.6,439.7z"/>
		<path class="st0" d="M932.4,439.7v-23.7c0-4.5-2.4-8.7-6.3-10.9l-20.5-11.8c-3.9-2.3-8.7-2.3-12.6,0l-20.5,11.8
			c-3.9,2.3-6.3,6.4-6.3,10.9v23.7c0,4.5,2.4,8.7,6.3,10.9l20.5,11.8c3.9,2.3,8.7,2.3,12.6,0l20.5-11.8
			C930,448.4,932.4,444.2,932.4,439.7z"/>
		<path class="st0" d="M857,439.7v-23.7c0-4.5-2.4-8.7-6.3-10.9l-20.5-11.8c-3.9-2.3-8.7-2.3-12.6,0L797,405.1
			c-3.9,2.3-6.3,6.4-6.3,10.9v23.7c0,4.5,2.4,8.7,6.3,10.9l20.5,11.8c3.9,2.3,8.7,2.3,12.6,0l20.5-11.8
			C854.6,448.4,857,444.2,857,439.7z"/>
		<path class="st0" d="M517.7,505.2v-23.7c0-4.5-2.4-8.6-6.3-10.9l-20.5-11.8c-3.9-2.3-8.7-2.3-12.6,0l-20.5,11.8
			c-3.9,2.2-6.3,6.4-6.4,10.9v23.7c0,4.5,2.4,8.7,6.3,10.9l20.5,11.8c3.9,2.3,8.7,2.3,12.6,0l20.6-11.8
			C515.3,513.9,517.7,509.7,517.7,505.2z"/>
		<path class="st1" d="M710.9,546.1c-5.1,0-10.1-1.3-14.5-3.9l-20.5-11.8c-9-5.2-14.5-14.8-14.5-25.2v-23.7c0-10.4,5.6-20,14.5-25.2
			l20.5-11.8c9-5.2,20.1-5.2,29.1,0l20.5,11.8c9,5.2,14.5,14.8,14.5,25.2v23.7c0,10.4-5.6,20-14.5,25.2l-20.5,11.8
			C721.1,544.8,716.1,546.1,710.9,546.1z"/>
		<path class="st0" d="M744,505.2v-23.7c0-4.5-2.4-8.6-6.3-10.9l-20.5-11.8c-3.9-2.3-8.7-2.3-12.6,0l-20.5,11.8
			c-3.9,2.3-6.3,6.4-6.3,10.9v23.6c0,4.5,2.4,8.7,6.3,10.9l20.5,11.8c3.9,2.3,8.7,2.3,12.6,0l20.5-11.8
			C741.6,513.9,744,509.7,744,505.2z"/>
		<path class="st0" d="M555.2,309.1v-23.7c0-4.5-2.4-8.7-6.3-10.9l-20.5-11.8c-3.9-2.3-8.7-2.3-12.6,0l-20.5,11.8
			c-3.9,2.3-6.3,6.4-6.3,10.9v23.6c0,4.5,2.4,8.7,6.3,10.9l20.5,11.8c3.9,2.3,8.7,2.3,12.6,0l20.5-11.8
			C552.8,317.8,555.2,313.6,555.2,309.1z"/>
		<path class="st0" d="M781.5,309.1v-23.7c0-4.5-2.4-8.7-6.3-10.9l-20.5-11.8c-3.9-2.3-8.7-2.3-12.6,0l-20.5,11.8
			c-3.9,2.3-6.3,6.4-6.3,10.9v23.6c0,4.5,2.4,8.7,6.3,10.9l20.5,11.8c3.9,2.3,8.7,2.3,12.6,0l20.5-11.8
			C779.1,317.8,781.5,313.6,781.5,309.1z"/>
		<path class="st0" d="M932.4,309.1v-23.7c0-4.5-2.4-8.7-6.3-10.9l-20.5-11.8c-3.9-2.3-8.7-2.3-12.6,0l-20.5,11.8
			c-3.9,2.3-6.3,6.4-6.3,10.9v23.6c0,4.5,2.4,8.7,6.3,10.9l20.5,11.8c3.9,2.3,8.7,2.3,12.6,0l20.5-11.8
			C930,317.8,932.4,313.6,932.4,309.1z"/>
		<path class="st0" d="M857,309.1v-23.7c0-4.5-2.4-8.7-6.3-10.9l-20.5-11.8c-3.9-2.3-8.7-2.3-12.6,0L797,274.5
			c-3.9,2.3-6.3,6.4-6.3,10.9v23.6c0,4.5,2.4,8.7,6.3,10.9l20.5,11.8c3.9,2.3,8.7,2.3,12.6,0l20.5-11.8
			C854.6,317.8,857,313.6,857,309.1z"/>
		<path class="st1" d="M560,415.5c-5.1,0-10.1-1.3-14.5-3.9L525,399.7c-9-5.2-14.6-14.8-14.6-25.2v-23.7c0-10.4,5.6-20,14.6-25.2
			l20.5-11.8c9-5.2,20.1-5.2,29.1,0l20.5,11.8c9,5.2,14.5,14.8,14.5,25.2v23.7c0,10.4-5.6,20-14.5,25.2l-20.5,11.8
			C570.1,414.1,565.1,415.5,560,415.5z"/>
		<path class="st0" d="M593.2,374.6v-23.7c0-4.5-2.4-8.7-6.3-10.9l-20.5-11.8c-3.9-2.3-8.7-2.3-12.6,0L533.2,340
			c-3.9,2.3-6.3,6.4-6.3,10.9v23.7c0,4.5,2.4,8.7,6.3,10.9l20.5,11.8c3.9,2.3,8.7,2.3,12.6,0l20.5-11.8
			C590.7,383.2,593.1,379.1,593.2,374.6z"/>
		<path class="st0" d="M744,374.6v-23.7c0-4.5-2.4-8.7-6.3-10.9l-20.5-11.8c-3.9-2.3-8.7-2.3-12.6,0L684.1,340
			c-3.9,2.3-6.3,6.4-6.3,10.9v23.7c0,4.5,2.4,8.7,6.3,10.9l20.5,11.8c3.9,2.3,8.7,2.3,12.6,0l20.5-11.8
			C741.6,383.2,744,379.1,744,374.6z"/>
		<path class="st0" d="M819.5,374.6v-23.7c0-4.5-2.4-8.7-6.3-10.9l-20.5-11.8c-3.9-2.3-8.7-2.3-12.6,0L759.6,340
			c-3.9,2.3-6.3,6.4-6.3,10.9v23.7c0,4.5,2.4,8.7,6.3,10.9l20.5,11.8c3.9,2.3,8.7,2.3,12.6,0l20.5-11.8
			C817.1,383.2,819.5,379.1,819.5,374.6z"/>
	</g>
</g>
</svg>
