<svg xmlns="http://www.w3.org/2000/svg" viewBox="0 0 80 80"><defs><style>.cls-1{fill:#fff;}</style></defs><g id="Layer_2" data-name="Layer 2"><g id="Layer_1-2" data-name="Layer 1"><path class="cls-1" d="M40,0A40,40,0,1,0,80,40,40,40,0,0,0,40,0Zm2,24a66.59,66.59,0,0,0,13.6-1.7A63,63,0,0,1,58,38H42Zm0-4V4.3c5,1.2,9.4,6.5,12.3,14.2A60.88,60.88,0,0,1,42,20ZM38,4.3V20.1a60.88,60.88,0,0,1-12.3-1.5C28.6,10.8,33,5.4,38,4.3ZM38,24V38H22a63,63,0,0,1,2.4-15.7A74.38,74.38,0,0,0,38,24ZM18,38.1H4a35.17,35.17,0,0,1,7.7-20.3,49.39,49.39,0,0,0,8.7,3.6A75.41,75.41,0,0,0,18,38.1Zm0,4a67.29,67.29,0,0,0,2.5,16.8,49.39,49.39,0,0,0-8.7,3.6A35.7,35.7,0,0,1,4.1,42.2H18Zm4,0H38v14a66.59,66.59,0,0,0-13.6,1.7A63.77,63.77,0,0,1,22,42.1Zm16,18V75.8c-5-1.2-9.4-6.5-12.3-14.2A54.5,54.5,0,0,1,38,60.1Zm4,15.7V60a60.88,60.88,0,0,1,12.3,1.5C51.4,69.2,47,74.6,42,75.8Zm0-19.7v-14H58a63,63,0,0,1-2.4,15.7A60.28,60.28,0,0,0,42,56.1Zm20-14H76a35.17,35.17,0,0,1-7.7,20.3,49.39,49.39,0,0,0-8.7-3.6A78.12,78.12,0,0,0,62,42.1Zm0-4a67.29,67.29,0,0,0-2.5-16.8,49.39,49.39,0,0,0,8.7-3.6A35.7,35.7,0,0,1,75.9,38L62,38.1Zm3.5-23.5a47,47,0,0,1-7.2,2.9A35.45,35.45,0,0,0,51.7,6,37.4,37.4,0,0,1,65.5,14.6ZM28.3,6a37,37,0,0,0-6.6,11.5,46.9,46.9,0,0,1-7.2-2.8A36.38,36.38,0,0,1,28.3,6ZM14.5,65.4a47,47,0,0,1,7.2-2.9A35.45,35.45,0,0,0,28.3,74,37.4,37.4,0,0,1,14.5,65.4Zm37.2,8.7a36.21,36.21,0,0,0,6.6-11.5,38.67,38.67,0,0,1,7.2,2.9A40.2,40.2,0,0,1,51.7,74.1Z"/></g></g></svg>