<svg id="Layer_1" data-name="Layer 1" xmlns="http://www.w3.org/2000/svg" viewBox="0 0 107.23 122.55"><defs><style>.cls-1{fill:#d6d6d6;}</style></defs><path class="cls-1" d="M107.23,122.55c-15.44-13.64-10.5-9.13-28.43-25.8L82,108.09H12.56A12.6,12.6,0,0,1,0,95.46V12.62A12.59,12.59,0,0,1,12.56,0H94.67a12.59,12.59,0,0,1,12.56,12.62ZM80.94,35c-8.82-6.62-17.22-6.44-17.22-6.44l-.85,1c10.41,3.19,15.25,7.79,15.25,7.79a52.06,52.06,0,0,0-45.77-1.78c-2.26,1-3.61,1.78-3.61,1.78s5.08-4.85,16.11-8l-.61-.74S35.84,28.37,27,35c0,0-8.82,16-8.82,35.72,0,0,5.15,8.88,18.69,9.31,0,0,2.26-2.75,4.1-5.08-7.78-2.33-10.72-7.23-10.72-7.23.9.63,2.39,1.45,2.51,1.53A44.66,44.66,0,0,0,71,71.38a34.93,34.93,0,0,0,7-3.61S75,72.79,67,75.06c1.84,2.33,4,5,4,5,13.54-.43,18.75-9.31,18.75-9.31C89.77,51,80.94,35,80.94,35ZM48.77,58.21A6.52,6.52,0,0,1,42.52,65a6.82,6.82,0,0,1,0-13.6A6.48,6.48,0,0,1,48.77,58.21ZM64.89,65a6.82,6.82,0,1,1,6.25-6.8A6.57,6.57,0,0,1,64.89,65Z"/></svg>