<svg xmlns="http://www.w3.org/2000/svg" viewBox="0 0 340.78 340.77"><defs><style>.cls-1{fill:#fff;}.cls-2{fill:#c6c6c6;}</style></defs><g id="Layer_2" data-name="Layer 2"><g id="Layer_1-2" data-name="Layer 1"><path class="cls-1" d="M324.8,234.28H227.16l-32.61,32.61a34.1,34.1,0,0,1-48.32,0l-32.61-32.61H16a15.94,15.94,0,0,0-16,16V324.8a15.94,15.94,0,0,0,16,16H324.8a15.93,15.93,0,0,0,16-16V250.25A15.93,15.93,0,0,0,324.8,234.28Zm-79.87,87.86a13.32,13.32,0,1,1,13.32-13.32A13.35,13.35,0,0,1,244.93,322.14Zm42.6,0a13.32,13.32,0,1,1,13.31-13.32A13.35,13.35,0,0,1,287.53,322.14Z"/><path class="cls-2" d="M197,0a15.93,15.93,0,0,1,16,16V127.79h58.37a13.29,13.29,0,0,1,9.38,22.7L179.51,251.79a12.9,12.9,0,0,1-18.17,0L60,150.49a13.29,13.29,0,0,1,9.39-22.7h58.43V16a15.94,15.94,0,0,1,16-16Z"/></g></g></svg>