<svg xmlns="http://www.w3.org/2000/svg" viewBox="0 0 72.87 72.87"><defs><style>.cls-1{fill:#fff;}</style></defs><g id="Layer_2" data-name="Layer 2"><g id="Layer_1-2" data-name="Layer 1"><path class="cls-1" d="M21.86,58.3a7.29,7.29,0,1,0,7.29,7.28A7.25,7.25,0,0,0,21.86,58.3ZM0,0V7.29H7.29l13.1,27.63-4.92,8.93a7.36,7.36,0,0,0-.9,3.52,7.28,7.28,0,0,0,7.29,7.28H65.58V47.37H23.41a.91.91,0,0,1-.91-.92.77.77,0,0,1,.11-.43l3.26-5.94H53a7.31,7.31,0,0,0,6.38-3.75l13-23.65a3.44,3.44,0,0,0,.46-1.75,3.64,3.64,0,0,0-3.64-3.64H15.36L11.9,0ZM58.3,58.3a7.29,7.29,0,1,0,7.28,7.28A7.25,7.25,0,0,0,58.3,58.3Z"/></g></g></svg>