<svg xmlns="http://www.w3.org/2000/svg" viewBox="0 0 70.79 77.56"><defs><style>.cls-1{fill:#fff;}</style></defs><g id="Layer_2" data-name="Layer 2"><g id="Layer_1-2" data-name="Layer 1"><path class="cls-1" d="M64,14.45,42.14,1.81a13.51,13.51,0,0,0-13.5,0L6.75,14.45A13.49,13.49,0,0,0,0,26.14V51.42A13.48,13.48,0,0,0,6.75,63.11L28.64,75.76a13.51,13.51,0,0,0,13.5,0L64,63.11a13.5,13.5,0,0,0,6.75-11.69V26.14A13.51,13.51,0,0,0,64,14.45ZM51.94,61.87l-16.55-8.7-16.55,8.7L22,43.45,8.62,30.4l18.5-2.69L35.39,11l8.27,16.76,18.5,2.69L48.78,43.45Z"/></g></g></svg>