<?xml version="1.0" encoding="utf-8"?>
<!-- Generator: Adobe Illustrator 26.0.2, SVG Export Plug-In . SVG Version: 6.00 Build 0)  -->
<svg version="1.1" id="Layer_1" xmlns="http://www.w3.org/2000/svg" xmlns:xlink="http://www.w3.org/1999/xlink" x="0px" y="0px"
	 viewBox="0 0 155.8 170.7" style="enable-background:new 0 0 155.8 170.7;" xml:space="preserve">
<style type="text/css">
	.st0{fill:#FFFFFF;}
</style>
<g>
	<g>
		<path class="st0" d="M155.8,113.2V57.5c0-10.6-5.7-20.4-14.9-25.7L92.7,4C83.5-1.3,72.2-1.3,63,4L14.9,31.8
			C5.7,37.1,0,46.9,0,57.5v55.6c0,10.6,5.7,20.4,14.9,25.7L63,166.7c9.2,5.3,20.5,5.3,29.7,0l48.2-27.8
			C150.1,133.6,155.8,123.8,155.8,113.2z"/>
	</g>
	<g>
		<path d="M77.9,157.9c-4.5,0-9.1-1.2-13.1-3.5l-40.1-23.2c-8.1-4.7-13.1-13.4-13.1-22.7V62.2c0-9.3,5-18.1,13.1-22.7l40.1-23.2
			c8.1-4.7,18.1-4.7,26.2,0l40.1,23.2c8.1,4.7,13.1,13.4,13.1,22.7v46.3c0,9.3-5,18.1-13.1,22.7L91,154.4
			C86.9,156.7,82.4,157.9,77.9,157.9z M77.9,15.8c-4,0-8,1-11.6,3.1L26.1,42C19,46.2,14.5,53.9,14.5,62.2v46.3
			c0,8.3,4.5,16,11.6,20.1l40.1,23.2c7.2,4.1,16.1,4.1,23.2,0l40.1-23.2c7.2-4.1,11.6-11.8,11.6-20.1V62.2c0-8.3-4.4-16-11.6-20.1
			L89.5,18.9C85.9,16.8,81.9,15.8,77.9,15.8z"/>
	</g>
</g>
</svg>
