<svg xmlns="http://www.w3.org/2000/svg" viewBox="0 0 74.01 74.87"><defs><style>.cls-1{fill:#fff;}</style></defs><g id="Layer_2" data-name="Layer 2"><g id="Layer_1-2" data-name="Layer 1"><path class="cls-1" d="M63.85,0h-44A10.17,10.17,0,0,0,9.73,10.16v.1H0V64.71A10.17,10.17,0,0,0,10.16,74.87H63.85A10.17,10.17,0,0,0,74,64.71V10.16A10.17,10.17,0,0,0,63.85,0Zm4.92,64.71a4.92,4.92,0,0,1-4.92,4.91H10.16a4.92,4.92,0,0,1-4.92-4.91V15.5H9.73V65.23H15V10.16a4.92,4.92,0,0,1,4.91-4.92h44a4.93,4.93,0,0,1,4.92,4.92Z"/><path class="cls-1" d="M40.5,27.11H18.62V47.76H40.5Zm-5.24,15.4H23.87V32.36H35.26Z"/><rect class="cls-1" x="18.7" y="14.65" width="46.6" height="5.24"/><rect class="cls-1" x="18.7" y="54.97" width="46.6" height="5.24"/><rect class="cls-1" x="44.68" y="29.44" width="20.61" height="5.24"/><rect class="cls-1" x="44.68" y="40.19" width="20.61" height="5.24"/></g></g></svg>