<svg xmlns="http://www.w3.org/2000/svg" viewBox="0 0 74.23 65.98"><defs><style>.cls-1{fill:#fff;}</style></defs><g id="Layer_2" data-name="Layer 2"><g id="Layer_1-2" data-name="Layer 1"><path class="cls-1" d="M70.1,38v19.7A4.14,4.14,0,0,1,66,61.86,4.76,4.76,0,0,1,63.41,61l-11-8.76A31.31,31.31,0,0,0,33,45.36H29.37a15.6,15.6,0,0,0-.57,4.13,16.47,16.47,0,0,0,3.37,10A4.09,4.09,0,0,1,28.84,66H19.26a4,4,0,0,1-3.66-2.2,32.64,32.64,0,0,1-3.29-14.29,31.25,31.25,0,0,1,.28-4.13H8.25A8.25,8.25,0,0,1,0,37.11V24.74A8.24,8.24,0,0,1,8.25,16.5H33A31.31,31.31,0,0,0,52.45,9.67L63.41.9A4.13,4.13,0,0,1,66,0a4.17,4.17,0,0,1,4.13,4.13v19.7a8.17,8.17,0,0,1,0,14.2ZM61.86,12.7,57.6,16.11A39.52,39.52,0,0,1,33,24.74V37.11A39.53,39.53,0,0,1,57.6,45.75l4.26,3.4Z"/></g></g></svg>