<svg xmlns="http://www.w3.org/2000/svg" viewBox="0 0 69.72 72.34"><defs><style>.cls-1{fill:#fff;}</style></defs><g id="Layer_2" data-name="Layer 2"><g id="Layer_1-2" data-name="Layer 1"><path class="cls-1" d="M59.72,12.09H50.27V6.44A6.45,6.45,0,0,0,43.83,0H28.9a6.45,6.45,0,0,0-6.45,6.44v5.65H10a10,10,0,0,0-10,10V38.32H23.84v-.63a4.78,4.78,0,0,1,2.38-4.13L34,29.08a4.8,4.8,0,0,1,4.78,0l7.75,4.48a4.78,4.78,0,0,1,2.38,4.13v.63H69.72V22.09A10,10,0,0,0,59.72,12.09Zm-30.27,0V7H43.27v5.09Z"/><path class="cls-1" d="M48.88,46.64a4.79,4.79,0,0,1-2.38,4.14l-7.75,4.47a4.8,4.8,0,0,1-4.78,0l-7.75-4.47a4.79,4.79,0,0,1-2.38-4.14v-.53H0V62.34a10,10,0,0,0,10,10H59.72a10,10,0,0,0,10-10V46.11H48.88Z"/></g></g></svg>