<svg id="Layer_1" data-name="Layer 1" xmlns="http://www.w3.org/2000/svg" viewBox="0 0 122.55 99.53"><defs><style>.cls-1{fill:#d6d6d6;}</style></defs><path class="cls-1" d="M110,28.07c0,33.2-25.27,71.46-71.46,71.46A71,71,0,0,1,0,88.26a52.65,52.65,0,0,0,6.06.31A50.36,50.36,0,0,0,37.25,77.84,25.18,25.18,0,0,1,13.76,60.42a32.15,32.15,0,0,0,4.75.39A26.33,26.33,0,0,0,25.12,60,25.11,25.11,0,0,1,5,35.3V35a25.29,25.29,0,0,0,11.35,3.19A25.15,25.15,0,0,1,8.55,4.59,71.41,71.41,0,0,0,60.34,30.87a28.28,28.28,0,0,1-.62-5.75A25.14,25.14,0,0,1,103.18,7.93a49.59,49.59,0,0,0,15.94-6.06,25,25,0,0,1-11,13.84,50.67,50.67,0,0,0,14.47-3.89,53.75,53.75,0,0,1-12.6,13C110,25.89,110,27,110,28.07Z"/></svg>