<svg id="Layer_1" data-name="Layer 1" xmlns="http://www.w3.org/2000/svg" viewBox="0 0 130.72 91.91"><defs><style>.cls-1{fill:#d6d6d6;}</style></defs><path class="cls-1" d="M130.72,46.05s0,21.41-2.73,31.66a16.19,16.19,0,0,1-11.56,11.45c-10.2,2.75-51.07,2.75-51.07,2.75s-40.88,0-51.07-2.75A16.15,16.15,0,0,1,2.73,77.71C0,67.46,0,46.05,0,46.05S0,24.64,2.73,14.38A16.41,16.41,0,0,1,14.29,2.75C24.48,0,65.36,0,65.36,0s40.87,0,51.07,2.75A16.44,16.44,0,0,1,128,14.38C130.72,24.64,130.72,46.05,130.72,46.05Zm-44.57,0L52,26.61V65.48Z"/></svg>